<mxfile host="65bd71144e">
    <diagram id="8bbaKS8E7-gGLmwbZnUU" name="Page-1">
        <mxGraphModel dx="1570" dy="389" grid="1" gridSize="10" guides="1" tooltips="1" connect="1" arrows="1" fold="1" page="1" pageScale="1" pageWidth="850" pageHeight="1100" math="0" shadow="0">
            <root>
                <mxCell id="0"/>
                <mxCell id="1" parent="0"/>
                <mxCell id="2" value="Pointer" style="rounded=0;whiteSpace=wrap;html=1;" vertex="1" parent="1">
                    <mxGeometry x="110" y="450" width="40" height="30" as="geometry"/>
                </mxCell>
                <mxCell id="3" value="" style="endArrow=none;html=1;fillColor=#e1d5e7;strokeColor=#9673a6;" edge="1" parent="1">
                    <mxGeometry width="50" height="50" relative="1" as="geometry">
                        <mxPoint x="150" y="500" as="sourcePoint"/>
                        <mxPoint x="150" y="430" as="targetPoint"/>
                    </mxGeometry>
                </mxCell>
                <mxCell id="10" value="Size" style="rounded=0;whiteSpace=wrap;html=1;fillColor=#fad9d5;strokeColor=#ae4132;fontColor=#171717;" vertex="1" parent="1">
                    <mxGeometry x="150" y="450" width="40" height="30" as="geometry"/>
                </mxCell>
                <mxCell id="11" value="Payload" style="rounded=0;whiteSpace=wrap;html=1;fillColor=#fad9d5;strokeColor=#ae4132;fontColor=#171717;" vertex="1" parent="1">
                    <mxGeometry x="190" y="450" width="60" height="30" as="geometry"/>
                </mxCell>
                <mxCell id="13" value="Size" style="rounded=0;whiteSpace=wrap;html=1;" vertex="1" parent="1">
                    <mxGeometry x="250" y="450" width="40" height="30" as="geometry"/>
                </mxCell>
                <mxCell id="14" value="Next" style="rounded=0;whiteSpace=wrap;html=1;" vertex="1" parent="1">
                    <mxGeometry x="290" y="450" width="40" height="30" as="geometry"/>
                </mxCell>
                <mxCell id="15" value="..." style="rounded=0;whiteSpace=wrap;html=1;spacingRight=11;" vertex="1" parent="1">
                    <mxGeometry x="330" y="450" width="80" height="30" as="geometry"/>
                </mxCell>
                <mxCell id="16" value="" style="curved=1;endArrow=classic;html=1;fontColor=#171717;exitX=0.5;exitY=0;exitDx=0;exitDy=0;entryX=0.5;entryY=0;entryDx=0;entryDy=0;fillColor=#e1d5e7;strokeColor=#9673a6;" edge="1" parent="1" source="2" target="13">
                    <mxGeometry width="50" height="50" relative="1" as="geometry">
                        <mxPoint x="270" y="550" as="sourcePoint"/>
                        <mxPoint x="320" y="500" as="targetPoint"/>
                        <Array as="points">
                            <mxPoint x="200" y="350"/>
                        </Array>
                    </mxGeometry>
                </mxCell>
                <mxCell id="17" value="Pointer" style="rounded=0;whiteSpace=wrap;html=1;" vertex="1" parent="1">
                    <mxGeometry x="110" y="535" width="40" height="30" as="geometry"/>
                </mxCell>
                <mxCell id="18" value="" style="endArrow=none;html=1;fillColor=#e1d5e7;strokeColor=#9673a6;" edge="1" parent="1">
                    <mxGeometry width="50" height="50" relative="1" as="geometry">
                        <mxPoint x="150" y="585" as="sourcePoint"/>
                        <mxPoint x="150" y="515" as="targetPoint"/>
                    </mxGeometry>
                </mxCell>
                <mxCell id="19" value="Size" style="rounded=0;whiteSpace=wrap;html=1;fillColor=#fad9d5;strokeColor=#ae4132;fontColor=#171717;" vertex="1" parent="1">
                    <mxGeometry x="150" y="535" width="40" height="30" as="geometry"/>
                </mxCell>
                <mxCell id="20" value="Payload" style="rounded=0;whiteSpace=wrap;html=1;fillColor=#fad9d5;strokeColor=#ae4132;fontColor=#171717;" vertex="1" parent="1">
                    <mxGeometry x="190" y="535" width="60" height="30" as="geometry"/>
                </mxCell>
                <mxCell id="21" value="Size" style="rounded=0;whiteSpace=wrap;html=1;" vertex="1" parent="1">
                    <mxGeometry x="250" y="535" width="40" height="30" as="geometry"/>
                </mxCell>
                <mxCell id="22" value="Next" style="rounded=0;whiteSpace=wrap;html=1;" vertex="1" parent="1">
                    <mxGeometry x="290" y="535" width="40" height="30" as="geometry"/>
                </mxCell>
                <mxCell id="24" value="Size" style="rounded=0;whiteSpace=wrap;html=1;fillColor=#fad9d5;strokeColor=#ae4132;fontColor=#171717;" vertex="1" parent="1">
                    <mxGeometry x="330" y="535" width="40" height="30" as="geometry"/>
                </mxCell>
                <mxCell id="25" value="Payload" style="rounded=0;whiteSpace=wrap;html=1;fillColor=#fad9d5;strokeColor=#ae4132;fontColor=#171717;" vertex="1" parent="1">
                    <mxGeometry x="370" y="535" width="60" height="30" as="geometry"/>
                </mxCell>
                <mxCell id="26" value="Size" style="rounded=0;whiteSpace=wrap;html=1;" vertex="1" parent="1">
                    <mxGeometry x="430" y="535" width="40" height="30" as="geometry"/>
                </mxCell>
                <mxCell id="27" value="Next" style="rounded=0;whiteSpace=wrap;html=1;" vertex="1" parent="1">
                    <mxGeometry x="470" y="535" width="40" height="30" as="geometry"/>
                </mxCell>
                <mxCell id="28" value="..." style="rounded=0;whiteSpace=wrap;html=1;spacingRight=11;" vertex="1" parent="1">
                    <mxGeometry x="510" y="535" width="80" height="30" as="geometry"/>
                </mxCell>
                <mxCell id="29" value="" style="curved=1;endArrow=classic;html=1;fontColor=#171717;exitX=0.5;exitY=0;exitDx=0;exitDy=0;entryX=0.5;entryY=0;entryDx=0;entryDy=0;fillColor=#e1d5e7;strokeColor=#9673a6;" edge="1" parent="1" source="17" target="21">
                    <mxGeometry width="50" height="50" relative="1" as="geometry">
                        <mxPoint x="130" y="520" as="sourcePoint"/>
                        <mxPoint x="270" y="520" as="targetPoint"/>
                        <Array as="points">
                            <mxPoint x="200" y="450"/>
                        </Array>
                    </mxGeometry>
                </mxCell>
                <mxCell id="30" value="" style="curved=1;endArrow=classic;html=1;fontColor=#171717;exitX=0.5;exitY=0;exitDx=0;exitDy=0;entryX=0.5;entryY=0;entryDx=0;entryDy=0;fillColor=#e1d5e7;strokeColor=#9673a6;" edge="1" parent="1" source="22" target="26">
                    <mxGeometry width="50" height="50" relative="1" as="geometry">
                        <mxPoint x="310" y="520" as="sourcePoint"/>
                        <mxPoint x="450" y="510" as="targetPoint"/>
                        <Array as="points">
                            <mxPoint x="380" y="450"/>
                        </Array>
                    </mxGeometry>
                </mxCell>
                <mxCell id="31" value="Fonctionnement simple" style="text;html=1;strokeColor=none;fillColor=none;align=center;verticalAlign=middle;whiteSpace=wrap;rounded=0;labelBackgroundColor=none;fontColor=#FCF1F0;" vertex="1" parent="1">
                    <mxGeometry x="10" y="450" width="60" height="30" as="geometry"/>
                </mxCell>
                <mxCell id="32" value="Avec une simple fragmentation" style="text;html=1;strokeColor=none;fillColor=none;align=center;verticalAlign=middle;whiteSpace=wrap;rounded=0;labelBackgroundColor=none;fontColor=#FCF1F0;" vertex="1" parent="1">
                    <mxGeometry x="-10" y="535" width="100" height="30" as="geometry"/>
                </mxCell>
                <mxCell id="33" value="Pointer" style="rounded=0;whiteSpace=wrap;html=1;" vertex="1" parent="1">
                    <mxGeometry x="110" y="630" width="40" height="30" as="geometry"/>
                </mxCell>
                <mxCell id="34" value="" style="endArrow=none;html=1;fillColor=#e1d5e7;strokeColor=#9673a6;" edge="1" parent="1">
                    <mxGeometry width="50" height="50" relative="1" as="geometry">
                        <mxPoint x="150" y="680" as="sourcePoint"/>
                        <mxPoint x="150" y="610" as="targetPoint"/>
                    </mxGeometry>
                </mxCell>
                <mxCell id="35" value="Size" style="rounded=0;whiteSpace=wrap;html=1;fillColor=#fad9d5;strokeColor=#ae4132;fontColor=#171717;" vertex="1" parent="1">
                    <mxGeometry x="150" y="630" width="40" height="30" as="geometry"/>
                </mxCell>
                <mxCell id="36" value="Payload" style="rounded=0;whiteSpace=wrap;html=1;fillColor=#fad9d5;strokeColor=#ae4132;fontColor=#171717;" vertex="1" parent="1">
                    <mxGeometry x="190" y="630" width="60" height="30" as="geometry"/>
                </mxCell>
                <mxCell id="37" value="Size" style="rounded=0;whiteSpace=wrap;html=1;" vertex="1" parent="1">
                    <mxGeometry x="250" y="630" width="40" height="30" as="geometry"/>
                </mxCell>
                <mxCell id="38" value="Next" style="rounded=0;whiteSpace=wrap;html=1;" vertex="1" parent="1">
                    <mxGeometry x="290" y="630" width="40" height="30" as="geometry"/>
                </mxCell>
                <mxCell id="39" value="Size" style="rounded=0;whiteSpace=wrap;html=1;fillColor=#fad9d5;strokeColor=#ae4132;fontColor=#171717;" vertex="1" parent="1">
                    <mxGeometry x="410" y="630" width="40" height="30" as="geometry"/>
                </mxCell>
                <mxCell id="40" value="Payload" style="rounded=0;whiteSpace=wrap;html=1;fillColor=#fad9d5;strokeColor=#ae4132;fontColor=#171717;" vertex="1" parent="1">
                    <mxGeometry x="450" y="630" width="60" height="30" as="geometry"/>
                </mxCell>
                <mxCell id="41" value="Size" style="rounded=0;whiteSpace=wrap;html=1;" vertex="1" parent="1">
                    <mxGeometry x="330" y="630" width="40" height="30" as="geometry"/>
                </mxCell>
                <mxCell id="42" value="Next" style="rounded=0;whiteSpace=wrap;html=1;" vertex="1" parent="1">
                    <mxGeometry x="370" y="630" width="40" height="30" as="geometry"/>
                </mxCell>
                <mxCell id="43" value="..." style="rounded=0;whiteSpace=wrap;html=1;spacingRight=11;" vertex="1" parent="1">
                    <mxGeometry x="510" y="630" width="80" height="30" as="geometry"/>
                </mxCell>
                <mxCell id="44" value="On évite la fragmentation" style="text;html=1;strokeColor=none;fillColor=none;align=center;verticalAlign=middle;whiteSpace=wrap;rounded=0;labelBackgroundColor=none;fontColor=#FCF1F0;" vertex="1" parent="1">
                    <mxGeometry x="-10" y="630" width="100" height="30" as="geometry"/>
                </mxCell>
                <mxCell id="45" value="" style="curved=1;endArrow=classic;html=1;fontColor=#171717;exitX=0.5;exitY=0;exitDx=0;exitDy=0;entryX=0.5;entryY=0;entryDx=0;entryDy=0;fillColor=#e1d5e7;strokeColor=#9673a6;" edge="1" parent="1" source="33" target="37">
                    <mxGeometry width="50" height="50" relative="1" as="geometry">
                        <mxPoint x="130" y="600" as="sourcePoint"/>
                        <mxPoint x="280" y="600" as="targetPoint"/>
                        <Array as="points">
                            <mxPoint x="200" y="545"/>
                        </Array>
                    </mxGeometry>
                </mxCell>
                <mxCell id="46" value="" style="curved=1;endArrow=classic;html=1;fontColor=#171717;exitX=0.5;exitY=0;exitDx=0;exitDy=0;entryX=0.5;entryY=0;entryDx=0;entryDy=0;fillColor=#e1d5e7;strokeColor=#9673a6;" edge="1" parent="1" source="38" target="41">
                    <mxGeometry width="50" height="50" relative="1" as="geometry">
                        <mxPoint x="300" y="615" as="sourcePoint"/>
                        <mxPoint x="440" y="615" as="targetPoint"/>
                        <Array as="points">
                            <mxPoint x="330" y="590"/>
                        </Array>
                    </mxGeometry>
                </mxCell>
                <mxCell id="47" value="Size" style="rounded=0;whiteSpace=wrap;html=1;" vertex="1" parent="1">
                    <mxGeometry x="250" y="630" width="40" height="30" as="geometry"/>
                </mxCell>
                <mxCell id="48" value="Next" style="rounded=0;whiteSpace=wrap;html=1;" vertex="1" parent="1">
                    <mxGeometry x="330" y="700" width="80" height="30" as="geometry"/>
                </mxCell>
                <mxCell id="49" value="Size" style="rounded=0;whiteSpace=wrap;html=1;" vertex="1" parent="1">
                    <mxGeometry x="250" y="700" width="80" height="30" as="geometry"/>
                </mxCell>
                <mxCell id="50" value="" style="shape=flexArrow;endArrow=classic;html=1;fontColor=#FCF1F0;exitX=1;exitY=1;exitDx=0;exitDy=0;entryX=1;entryY=0;entryDx=0;entryDy=0;fillColor=#e1d5e7;strokeColor=#9673a6;" edge="1" parent="1" source="38" target="49">
                    <mxGeometry width="50" height="50" relative="1" as="geometry">
                        <mxPoint x="310" y="650" as="sourcePoint"/>
                        <mxPoint x="360" y="600" as="targetPoint"/>
                    </mxGeometry>
                </mxCell>
                <mxCell id="52" value="On fait du simplement chainé car peu de fragmentation (voir si double est un gain suffisant plus tard)" style="text;html=1;strokeColor=none;fillColor=none;align=center;verticalAlign=middle;whiteSpace=wrap;rounded=0;labelBackgroundColor=none;fontColor=#FCF1F0;" vertex="1" parent="1">
                    <mxGeometry x="480" y="440" width="200" height="30" as="geometry"/>
                </mxCell>
            </root>
        </mxGraphModel>
    </diagram>
</mxfile>